<svg xmlns="http://www.w3.org/2000/svg" width="24" height="24" viewBox="0 0 24 24"><g transform="translate(-79 -625)"><g transform="translate(79 625)" fill="none" stroke="#b88b47" stroke-width="1"><circle cx="12" cy="12" r="12" stroke="none"/><circle cx="12" cy="12" r="11.5" fill="none"/></g><path d="M1.25,2.5H.625A.625.625,0,0,0,0,3.125v6.25A.625.625,0,0,0,.625,10H1.25a.625.625,0,0,0,.625-.625V3.125A.625.625,0,0,0,1.25,2.5Zm8.125.625V1.509a.625.625,0,0,0-.183-.442L8.308.183A.625.625,0,0,0,7.866,0H3.125A.625.625,0,0,0,2.5.625v8.75A.625.625,0,0,0,3.125,10h6.25A.625.625,0,0,0,10,9.375V3.75A.625.625,0,0,0,9.375,3.125ZM5.625,8.438a.312.312,0,0,1-.312.313H4.688a.312.312,0,0,1-.312-.312V7.813A.312.312,0,0,1,4.688,7.5h.625a.312.312,0,0,1,.313.313Zm0-2.5a.312.312,0,0,1-.312.313H4.688a.312.312,0,0,1-.312-.312V5.313A.312.312,0,0,1,4.688,5h.625a.312.312,0,0,1,.313.313Zm2.5,2.5a.312.312,0,0,1-.312.313H7.188a.312.312,0,0,1-.312-.312V7.813A.312.312,0,0,1,7.188,7.5h.625a.312.312,0,0,1,.313.313Zm0-2.5a.312.312,0,0,1-.312.313H7.188a.312.312,0,0,1-.312-.312V5.313A.312.312,0,0,1,7.188,5h.625a.312.312,0,0,1,.313.313ZM8.438,3.75h-5V.938H7.5v.625a.312.312,0,0,0,.313.313h.625Z" transform="translate(86 632)" fill="#b88b47"/></g></svg>