<svg xmlns="http://www.w3.org/2000/svg" width="25.201" height="24" viewBox="0 0 25.201 24"><path d="M20.334,10.614a.662.662,0,0,1,0,1.324H18.491v1.181h1.843a.661.661,0,1,1,0,1.322H17.828a.663.663,0,0,1-.658-.66V8.771a.663.663,0,0,1,.662-.662h2.505a.662.662,0,0,1,0,1.323H18.491v1.181h1.843Zm-4.048,3.167a.661.661,0,0,1-.454.626.678.678,0,0,1-.209.033.649.649,0,0,1-.536-.263l-2.565-3.483v3.087a.66.66,0,1,1-1.32,0V8.771a.658.658,0,0,1,.452-.625.611.611,0,0,1,.2-.035.679.679,0,0,1,.52.267l2.585,3.5v-3.1a.662.662,0,1,1,1.323,0Zm-6.028,0a.66.66,0,1,1-1.321,0V8.771a.66.66,0,1,1,1.321,0Zm-2.589.66H5.163a.665.665,0,0,1-.662-.66V8.771a.662.662,0,1,1,1.323,0v4.348H7.668a.661.661,0,0,1,0,1.322M25.2,11.087C25.2,5.448,19.546.858,12.6.858S0,5.448,0,11.087c0,5.052,4.484,9.284,10.537,10.089.411.086.969.271,1.111.62a2.565,2.565,0,0,1,.04,1.134L11.516,24c-.047.316-.252,1.245,1.1.677s7.262-4.282,9.908-7.324A9.054,9.054,0,0,0,25.2,11.087" transform="translate(0 -0.858)" fill="#f6f7f0"/></svg>