<svg xmlns="http://www.w3.org/2000/svg" width="24" height="24" viewBox="0 0 24 24"><g transform="translate(-79 -625)"><g transform="translate(79 625)" fill="none" stroke="#b88b47" stroke-width="1"><circle cx="12" cy="12" r="12" stroke="none"/><circle cx="12" cy="12" r="11.5" fill="none"/></g><path d="M11.258,6.259a.367.367,0,0,1,0,.733h-1.02v.654h1.02a.366.366,0,1,1,0,.732H9.871a.367.367,0,0,1-.365-.366V5.239a.367.367,0,0,1,.366-.366H11.26a.366.366,0,0,1,0,.733h-1.02v.654h1.02ZM9.017,8.013a.366.366,0,0,1-.251.346.376.376,0,0,1-.116.018.359.359,0,0,1-.3-.145L6.933,6.3V8.013a.365.365,0,1,1-.731,0V5.239a.364.364,0,0,1,.25-.346.338.338,0,0,1,.113-.019.376.376,0,0,1,.288.148L8.284,6.958V5.239a.366.366,0,1,1,.733,0Zm-3.338,0a.366.366,0,1,1-.731,0V5.239a.366.366,0,1,1,.731,0Zm-1.434.366H2.859a.368.368,0,0,1-.366-.366V5.239a.366.366,0,1,1,.733,0V7.647H4.246a.366.366,0,0,1,0,.732m9.707-1.857C13.953,3.4,10.822.858,6.976.858S0,3.4,0,6.522c0,2.8,2.482,5.14,5.834,5.586.227.048.537.15.615.343a1.42,1.42,0,0,1,.022.628l-.1.593c-.026.175-.14.689.61.375a22.489,22.489,0,0,0,5.486-4.055,5.013,5.013,0,0,0,1.481-3.47" transform="translate(84.423 629.498)" fill="#b88b47"/></g></svg>