<svg xmlns="http://www.w3.org/2000/svg" width="24" height="24" viewBox="0 0 24 24"><g transform="translate(-79 -625)"><g transform="translate(79 625)" fill="none" stroke="#b88b47" stroke-width="1"><circle cx="12" cy="12" r="12" stroke="none"/><circle cx="12" cy="12" r="11.5" fill="none"/></g><path d="M8.366,9.21H7.982V.461A.461.461,0,0,0,7.522,0H1.075A.461.461,0,0,0,.614.461V9.21H.23A.23.23,0,0,0,0,9.44v.384H8.6V9.44A.23.23,0,0,0,8.366,9.21ZM2.456,1.458a.23.23,0,0,1,.23-.23h.768a.23.23,0,0,1,.23.23v.768a.23.23,0,0,1-.23.23H2.686a.23.23,0,0,1-.23-.23Zm0,1.842a.23.23,0,0,1,.23-.23h.768a.23.23,0,0,1,.23.23v.768a.23.23,0,0,1-.23.23H2.686a.23.23,0,0,1-.23-.23Zm1,2.84H2.686a.23.23,0,0,1-.23-.23V5.142a.23.23,0,0,1,.23-.23h.768a.23.23,0,0,1,.23.23V5.91A.23.23,0,0,1,3.454,6.14ZM4.912,9.21H3.684V7.6a.23.23,0,0,1,.23-.23h.768a.23.23,0,0,1,.23.23ZM6.14,5.91a.23.23,0,0,1-.23.23H5.142a.23.23,0,0,1-.23-.23V5.142a.23.23,0,0,1,.23-.23H5.91a.23.23,0,0,1,.23.23Zm0-1.842a.23.23,0,0,1-.23.23H5.142a.23.23,0,0,1-.23-.23V3.3a.23.23,0,0,1,.23-.23H5.91a.23.23,0,0,1,.23.23Zm0-1.842a.23.23,0,0,1-.23.23H5.142a.23.23,0,0,1-.23-.23V1.458a.23.23,0,0,1,.23-.23H5.91a.23.23,0,0,1,.23.23Z" transform="translate(86.827 632.088)" fill="#b88b47"/></g></svg>