<svg xmlns="http://www.w3.org/2000/svg" width="16" height="13" viewBox="0 0 16 13"><path d="M2.5,13.375H.5a.5.5,0,0,0-.5.5v2a.5.5,0,0,0,.5.5h2a.5.5,0,0,0,.5-.5v-2A.5.5,0,0,0,2.5,13.375Zm0-10H.5a.5.5,0,0,0-.5.5v2a.5.5,0,0,0,.5.5h2a.5.5,0,0,0,.5-.5v-2A.5.5,0,0,0,2.5,3.375Zm0,5H.5a.5.5,0,0,0-.5.5v2a.5.5,0,0,0,.5.5h2a.5.5,0,0,0,.5-.5v-2A.5.5,0,0,0,2.5,8.375Zm13,5.5H5.5a.5.5,0,0,0-.5.5v1a.5.5,0,0,0,.5.5h10a.5.5,0,0,0,.5-.5v-1A.5.5,0,0,0,15.5,13.875Zm0-10H5.5a.5.5,0,0,0-.5.5v1a.5.5,0,0,0,.5.5h10a.5.5,0,0,0,.5-.5v-1A.5.5,0,0,0,15.5,3.875Zm0,5H5.5a.5.5,0,0,0-.5.5v1a.5.5,0,0,0,.5.5h10a.5.5,0,0,0,.5-.5v-1A.5.5,0,0,0,15.5,8.875Z" transform="translate(0 -3.375)" fill="#f6f7f0"/></svg>