<svg xmlns="http://www.w3.org/2000/svg" width="24" height="24" viewBox="0 0 24 24"><g transform="translate(-79 -625)"><g transform="translate(79 625)" fill="none" stroke="#b88b47" stroke-width="1"><circle cx="12" cy="12" r="12" stroke="none"/><circle cx="12" cy="12" r="11.5" fill="none"/></g><path d="M9.715,7.067,7.527,6.129a.469.469,0,0,0-.547.135L6.012,7.448A7.24,7.24,0,0,1,2.551,3.987l1.184-.969a.468.468,0,0,0,.135-.547L2.932.284A.472.472,0,0,0,2.395.012L.363.481A.469.469,0,0,0,0,.938,9.062,9.062,0,0,0,9.063,10a.469.469,0,0,0,.457-.363l.469-2.031a.474.474,0,0,0-.274-.539Z" transform="translate(86 632)" fill="#b88b47"/></g></svg>